<svg width="32" height="32" viewBox="0 0 32 32" fill="none" xmlns="http://www.w3.org/2000/svg">
<g clip-path="url(#clip0_5_241)">
<path d="M25.3333 22.5333C26.9535 22.2043 28.3937 21.2851 29.3742 19.954C30.3548 18.6229 30.8058 16.9749 30.6396 15.33C30.4735 13.6851 29.702 12.1606 28.4751 11.0525C27.2482 9.94437 25.6533 9.33167 24 9.33333H22.32C21.8783 7.62309 21.0187 6.04932 19.8185 4.75331C18.6183 3.45731 17.1151 2.47964 15.4438 1.90808C13.7724 1.33653 11.9853 1.18897 10.2428 1.47868C8.50039 1.76838 6.85716 2.48626 5.46067 3.56788C4.06419 4.64949 2.95817 6.06098 2.24191 7.67561C1.52565 9.29025 1.22158 11.0575 1.357 12.8187C1.49242 14.5798 2.06308 16.2798 3.01776 17.766C3.97244 19.2521 5.28124 20.4779 6.82667 21.3333M17.3333 14.6667L12 22.6667H20L14.6667 30.6667" stroke="white" stroke-width="3" stroke-linecap="round" stroke-linejoin="round"/>
</g>
<defs>
<clipPath id="clip0_5_241">
<rect width="32" height="32" fill="white"/>
</clipPath>
</defs>
</svg>
